<?xml version="1.0" standalone="no"?>
<!DOCTYPE svg PUBLIC "-//W3C//DTD SVG 1.1//EN" "http://www.w3.org/Graphics/SVG/1.1/DTD/svg11.dtd" >
<svg xmlns="http://www.w3.org/2000/svg">
<metadata>
Created by FontForge 20120731 at Sun Sep  6 18:01:24 2015
 By Ads
</metadata>
<defs>
<font id="iconfont" horiz-adv-x="1024" >
  <font-face 
    font-family="iconfont"
    font-weight="500"
    font-stretch="normal"
    units-per-em="1024"
    panose-1="2 0 6 3 0 0 0 0 0 0"
    ascent="812"
    descent="-212"
    x-height="792"
    bbox="0 -201.75 1024 802"
    underline-thickness="50"
    underline-position="-100"
    unicode-range="U+0078-E623"
  />
<missing-glyph horiz-adv-x="374" 
d="M34 0v682h272v-682h-272zM68 34h204v614h-204v-614z" />
    <glyph glyph-name=".notdef" horiz-adv-x="374" 
d="M34 0v682h272v-682h-272zM68 34h204v614h-204v-614z" />
    <glyph glyph-name=".null" horiz-adv-x="0" 
 />
    <glyph glyph-name="nonmarkingreturn" horiz-adv-x="341" 
 />
    <glyph glyph-name="x" unicode="x" horiz-adv-x="1001" 
d="M281 543q-27 -1 -53 -1h-83q-18 0 -36.5 -6t-32.5 -18.5t-23 -32t-9 -45.5v-76h912v41q0 16 -0.5 30t-0.5 18q0 13 -5 29t-17 29.5t-31.5 22.5t-49.5 9h-133v-97h-438v97zM955 310v-52q0 -23 0.5 -52t0.5 -58t-10.5 -47.5t-26 -30t-33 -16t-31.5 -4.5q-14 -1 -29.5 -0.5
t-29.5 0.5h-32l-45 128h-439l-44 -128h-29h-34q-20 0 -45 1q-25 0 -41 9.5t-25.5 23t-13.5 29.5t-4 30v167h911zM163 247q-12 0 -21 -8.5t-9 -21.5t9 -21.5t21 -8.5q13 0 22 8.5t9 21.5t-9 21.5t-22 8.5zM316 123q-8 -26 -14 -48q-5 -19 -10.5 -37t-7.5 -25t-3 -15t1 -14.5
t9.5 -10.5t21.5 -4h37h67h81h80h64h36q23 0 34 12t2 38q-5 13 -9.5 30.5t-9.5 34.5q-5 19 -11 39h-368zM336 498v228q0 11 2.5 23t10 21.5t20.5 15.5t34 6h188q31 0 51.5 -14.5t20.5 -52.5v-227h-327z" />
    <glyph glyph-name="uniE600" unicode="&#xe600;" 
d="M282 -12l-133 55q-5 1 -10 0.5t-9.5 -3.5t-6.5 -8l-21 -52q-10 -24 0 -48t34 -34l54 -22q24 -10 48 0t34 35l21 51q3 7 0 15t-11 11zM870 -18l-10 54q-1 8 -8 13t-15 3l-142 -24q-8 -1 -13 -8t-3 -15l9 -55q5 -26 26.5 -41t46.5 -10l58 10q25 4 40 25.5t11 47.5zM830 89
q8 1 13 8t4 15l-81 458q-5 26 -26 41t-47 10l-4 -1q-16 44 -46 69.5t-67 27.5q-17 1 -34.5 -4.5t-40 -19.5t-46 -46.5t-43.5 -79.5l-3 1q-17 6 -33 4t-29.5 -12.5t-19.5 -26.5l-175 -430q-3 -7 0 -15t11 -11l133 -55q8 -3 15.5 0.5t10.5 10.5l175 431q9 23 0.5 45.5
t-29.5 33.5q15 36 33 61.5t36.5 38.5t35.5 13q17 -1 31.5 -13.5t23.5 -33.5q-22 -7 -34.5 -27.5t-8.5 -43.5l80 -457q2 -8 8.5 -13t14.5 -3z" />
    <glyph glyph-name="uniE601" unicode="&#xe601;" 
d="M504 381q81 -11 138.5 46.5t46.5 138.5q-3 27 -15.5 52t-31 43.5t-43.5 31t-52 15.5q-81 11 -138 -46.5t-47 -138.5q7 -55 47 -95t95 -47zM757 317q94 82 69 124q-8 10 -15 8t-22.5 -12.5t-31 -25t-40.5 -32t-51.5 -32t-63.5 -25t-76 -11.5q-40 1 -77 11t-63 24.5
t-51.5 30.5t-41 30t-31 24t-22.5 11.5t-15 -7.5q-5 -8 -5 -17.5t3 -18t9 -18t13 -17t15 -15.5t14.5 -13.5t12.5 -11t8 -7.5l11 -11q12 -11 20.5 -20.5t16.5 -33.5t7 -52t-13.5 -73t-39.5 -98q-71 -138 -47 -138q13 0 85 58q114 92 167 106q13 4 24 4q53 0 167 -97
q75 -64 88 -70q19 -10 18 11q-2 29 -44 126q-27 61 -37.5 111t-9 78.5t12 52t17.5 30.5t16 14q2 2 3 2z" />
    <glyph glyph-name="uniE602" unicode="&#xe602;" 
d="M226 -41v667q0 17 12 28.5t28 11.5q17 0 28.5 -11.5t11.5 -28.5v-667q0 -17 -11.5 -28.5t-28.5 -11.5q-27 0 -37 26q-2 7 -3 14zM843 139h-399q-28 0 -47.5 20t-19.5 47v394q0 27 19.5 46.5t47.5 19.5h399q24 0 34.5 -22t-4.5 -41l-144 -175q-3 -5 -5.5 -10t-3 -10
t0 -10.5t3 -10.5t5.5 -9l144 -175q7 -9 8 -20.5t-3 -21t-13.5 -16t-21.5 -6.5z" />
    <glyph glyph-name="uniE603" unicode="&#xe603;" 
d="M338 452l-31 20q-93 48 -164 -5q-92 -69 -58 -172q31 -94 149 -168q125 -77 285 -91q-2 3 -3.5 9.5t-0.5 27.5t7.5 43.5t27 57t52.5 69.5q36 39 46 87.5t-1 89.5t-35 73.5t-53 43.5q-65 27 -125.5 6t-95.5 -91zM801 248q2 1 5 4t12.5 8.5t19.5 9t25.5 3t30.5 -7.5
q40 -18 47.5 -62t-19.5 -77q-21 -27 -82.5 -50.5t-106.5 -27.5q1 1 1.5 3t-1.5 9.5t-7 16t-18 22.5t-32 29q-28 21 -34 54t6.5 60.5t34.5 38.5q17 9 33 11t31 -2t29 -14.5t25 -27.5z" />
    <glyph glyph-name="uniE604" unicode="&#xe604;" 
d="M766 152v0q-2 1 -5 2l-2 1l-25 13q-94 50 -161 136q1 1 3 4q3 2 3 3q121 148 165 333l3 13q1 6 0.5 11.5t-3.5 10.5t-7 8q-11 10 -25 8t-22 -14l-178 -285l-178 285q-4 5 -9.5 9t-12 5t-13 -1t-12.5 -7q-14 -12 -10 -30l3 -13q44 -185 165 -333l2 -2q1 -1 2 -2.5t2 -2.5
q-66 -85 -160 -136l-26 -13l-6 -3v0q-34 -18 -54 -51t-20 -72q0 -16 4 -32t11 -29.5t16.5 -26t21.5 -22t26 -16.5t29.5 -10.5t32.5 -3.5q56 0 96.5 39.5t42.5 95.5h1q6 94 46 180q20 -42 32 -87.5t15 -92.5q2 -56 42.5 -95.5t97.5 -39.5q28 0 54 11t45 30t30 44.5t11 54.5
q0 39 -20 72t-53 51zM325 -58q-35 0 -60.5 25.5t-25.5 61.5q0 23 11.5 43t31.5 31.5t43 11.5q36 0 61.5 -25t25.5 -61q0 -49 -41 -74q-22 -13 -46 -13zM699 -58q-36 0 -61.5 25.5t-25.5 61.5q0 23 11.5 43t31.5 31.5t44 11.5q36 0 61.5 -25t25.5 -61q0 -18 -7 -34
t-18.5 -27.5t-27.5 -18.5t-34 -7z" />
    <glyph glyph-name="uniE605" unicode="&#xe605;" 
d="M389 -18h15q10 0 17.5 -7.5t7.5 -17.5q0 -11 7.5 -18.5t18.5 -7.5h114q11 0 18.5 7.5t7.5 18.5q0 10 7.5 17.5t17.5 7.5h15q13 0 22.5 9.5t9.5 22.5v14q0 9 -4 16.5t-11.5 11.5t-16.5 4h-246q-14 0 -23 -9t-9 -23v-14q0 -7 2.5 -12.5t6.5 -10t10 -7t13 -2.5zM493 689
q-99 -7 -170.5 -79t-77.5 -171q-2 -43 8.5 -83.5t31.5 -74.5t52 -60q9 -8 14.5 -20t5.5 -25q0 -7 1.5 -14t4.5 -13t7 -11.5t9.5 -9.5t11.5 -7t13 -4.5t14 -1.5h188q25 0 43 17.5t18 43.5q0 13 5.5 25t15.5 21q28 24 48.5 55.5t31.5 68.5t11 76q0 116 -84.5 195.5
t-201.5 71.5zM685 440q-6 -2 -13 -2q-12 0 -22 6.5t-14 17.5q-17 48 -56.5 75t-85.5 23q-10 0 -19 4t-14.5 12.5t-6.5 18.5q0 5 1 10t3 9.5t5 8t7 6.5t9 4.5t10 2.5q47 3 90.5 -14t76.5 -51.5t51 -81.5q5 -15 -1.5 -29.5t-20.5 -19.5z" />
    <glyph glyph-name="uniE606" unicode="&#xe606;" 
d="M616 163q-5 5 -12 5t-12 -6q-79 -99 -77 -227q0 -7 5 -11.5t12 -4.5q123 7 219 84q6 5 6 12t-5 12zM877 297q-61 1 -119.5 -18.5t-107.5 -58.5q-6 -5 -6 -12t5 -12l136 -136q2 -2 4.5 -3.5t5 -1.5t5 0.5t5 2t4.5 3.5q38 47 59.5 103.5t24.5 115.5q0 7 -5 12t-11 5z
M147 303q128 -2 227 77q6 4 6 11.5t-5 11.5l-136 137q-5 5 -12 5t-12 -6q-77 -96 -84 -220q0 -6 5 -11t11 -5zM560 219l-129 129q-10 10 -21 0q-112 -92 -259 -92q-7 0 -11.5 -5t-3.5 -12q19 -121 107 -209q43 -43 96.5 -70t111.5 -36q7 -1 12 3.5t5 11.5q0 147 93 259
q9 11 -1 21zM409 437q4 -5 11.5 -5t11.5 6q79 99 77 227q0 4 -2 7.5t-6 6t-8 1.5q-124 -6 -220 -84q-5 -4 -5.5 -11t4.5 -12q68 -68 137 -136zM464 381l129 -129q10 -10 21 -1q112 93 259 93q7 0 11.5 5t3.5 12q-19 122 -107 208q-87 88 -208 107q-7 1 -12 -3.5t-5 -11.5
q0 -46 -10 -91t-31 -88t-52 -80q-9 -11 1 -21z" />
    <glyph glyph-name="uniE607" unicode="&#xe607;" 
d="M443 581l-212 -212q-7 -7 -18 -7t-19 7q-7 8 -7 18.5t7 18.5l212 212q8 7 18.5 7t18.5 -7q8 -8 8 -19t-8 -18zM426 519l-133 -133q-26 -26 -26 -63t26 -63l292 -292q26 -26 63 -26t63 26l133 133q26 26 26 63t-26 63l-292 292q-26 26 -63 26t-63 -26zM599 136
q10 -10 10 -24.5t-10 -25t-24.5 -10.5t-24.5 11l-191 190q-10 10 -10 24.5t10 24.5q5 5 11.5 7.5t13.5 2.5t13.5 -2.5t11.5 -7.5zM362 646l-1 1q-7 7 -16.5 9.5t-19 0t-16.5 -9.5l-19 -19q-11 -11 -26.5 -11t-26.5 11t-26.5 11t-26.5 -11t-11 -26.5t11 -26.5t11 -26.5
t-11 -26.5l-19 -19q-11 -10 -11 -25.5t11 -26.5l1 -1q3 -3 6.5 -4.5t7 -1.5t7 1.5t6.5 4.5l170 170q3 3 4.5 8t0 9.5t-5.5 8.5z" />
    <glyph glyph-name="uniE608" unicode="&#xe608;" 
d="M731 -85h-489q-4 0 -7.5 0.5t-6.5 2.5l-6 4q-3 2 -5.5 5t-4 6t-2.5 7t-1 8v16q0 7 3 13t7 10.5t10.5 7t12.5 2.5h489q13 0 23 -9.5t10 -23.5v-16q0 -9 -4.5 -17t-12 -12t-16.5 -4zM270 390q4 -8 9.5 -15.5t14 -16.5t18.5 -11.5t22 -1t27 14t30 34.5q75 -7 91 8
q0 -1 0.5 -3t1 -8t0.5 -12t-1.5 -15.5t-4 -18.5t-8 -20.5t-12.5 -22.5t-18 -23.5t-25 -24.5q-129 -108 -148 -193q-2 -10 4.5 -18t17.5 -8h370q7 0 12.5 4t7.5 10t1 13q-4 11 -4 31.5t7 40.5q1 3 17.5 45t24 66.5t16 74t8.5 98.5q0 44 -13 80.5t-32 57.5t-37.5 35.5
t-31.5 19.5l-14 5l21 61q4 10 -4.5 16t-16.5 0l-88 -64q-34 2 -51 -9q-25 -15 -51.5 -37.5t-53 -50.5t-43 -46.5t-39 -46.5t-23.5 -28q-8 -10 -2 -21z" />
    <glyph glyph-name="uniE609" unicode="&#xe609;" 
d="M939 650l-3 -5q-64 -138 -171 -246l-105 -104q-3 -3 -6.5 -5t-7.5 -3t-8 -1t-7.5 1t-7 3t-6.5 5l-93 93q-9 9 -9 21.5t9 21.5l102 102q22 22 45.5 42.5t48.5 39t51 35t53.5 31t56.5 27.5q27 11 46.5 -8.5t11.5 -49.5zM604 268l-107 107q-6 6 -14.5 6t-14.5 -6l-15 -14
q-24 -24 -21.5 -61.5t31.5 -65.5q18 -19 42 -26.5t46.5 -3t37.5 19.5l15 15q3 3 4.5 6.5t1.5 7.5t-1.5 8t-4.5 7zM433 -10q-7 -7 -17 -15q-42 -34 -94 -47.5t-97.5 -7.5t-80.5 18t-56 27q9 2 18 7.5t15 13.5t11.5 18t9 20.5t6 21.5t4.5 20t3 16.5t1 11.5v4h1q2 67 51 116
q32 32 74.5 44t84 2t71.5 -41q47 -46 45.5 -113t-50.5 -116z" />
    <glyph glyph-name="uniE60A" unicode="&#xe60a;" 
d="M663 221q0 12 2 24.5t4.5 23t5.5 22t4.5 26t1.5 30.5q0 73 -132 85v168q3 3 6 6.5t5 7.5t3.5 8t3.5 8h32q9 0 9 9t-9 9h-30v34h30q9 0 9 9t-9 9h-32q-2 7 -5.5 13.5t-7.5 11.5t-10 9.5t-12 7.5t-13.5 5t-14.5 2q-22 0 -39.5 -14t-23.5 -35h-32q-9 0 -9 -9t9 -9h30v-34
h-30q-9 0 -9 -9t9 -9h32q3 -9 7.5 -16.5t10.5 -13.5v-168q-24 -2 -44.5 -6.5t-41.5 -13.5t-33.5 -26t-12.5 -39q0 -30 9 -67.5t9 -58.5q0 -14 -12 -37.5t-26 -45.5t-25.5 -56t-11.5 -67q0 -41 18 -72t44.5 -48t61 -27.5t60.5 -14t50 -3.5t50.5 3.5t60.5 14t60.5 27.5
t44.5 48t18 72q0 32 -11.5 65.5t-25.5 56t-26 46.5t-12 38zM504 297q25 0 43 -18t18 -43t-18 -42.5t-43 -17.5t-43 17.5t-18 42.5q0 17 8.5 31t22.5 22t30 8zM588 -3h-168q-8 0 -13.5 5.5t-5.5 14t5.5 14t13.5 5.5h168q5 0 9.5 -2.5t7 -7t2.5 -10.5q0 -8 -5.5 -13.5
t-13.5 -5.5z" />
    <glyph glyph-name="uniE60B" unicode="&#xe60b;" 
d="M883 555q0 35 -17.5 64t-48 44t-65.5 12l-377 -33q-54 -5 -93 -47t-39 -96v-288q0 -19 -13 -32.5t-32 -14.5q-15 -1 -30 -5.5t-27.5 -12.5t-23 -18.5t-17.5 -24t-10 -28.5q-11 -53 23 -94t86 -41q46 0 79 33t33 79v338q0 21 1 30t8 19.5t22 14.5t43 7q23 3 170.5 18.5
t199.5 21.5q33 3 47 -5.5t14 -31.5v-188q0 -25 -17 -43.5t-42 -21.5h-1h-1q-24 -4 -44.5 -17.5t-34 -34.5t-15.5 -45q-7 -52 28.5 -90t87.5 -36q44 3 75 37.5t31 78.5v451z" />
    <glyph glyph-name="uniE60C" unicode="&#xe60c;" 
d="M183 498zM123 498q0 37 34 53q13 6 26 7q25 0 42.5 -18t17.5 -42q0 -12 -5 -23.5t-13 -19.5t-19 -12.5t-23 -4.5q-10 0 -19 3t-16.5 8.5t-13 13t-8.5 16.5t-3 19zM838 438h-465q-25 0 -42.5 17.5t-17.5 42.5q0 24 17.5 42t42.5 18h465q24 0 41.5 -18t17.5 -42
q0 -12 -4.5 -23t-12.5 -19t-19 -13t-23 -5zM183 297zM123 297q0 38 34 54q13 6 26 6q16 0 30 -8t22 -21.5t8 -30.5q0 -12 -5 -23t-13 -19t-19 -12.5t-23 -4.5q-25 0 -42.5 17.5t-17.5 41.5zM838 238h-465q-25 0 -42.5 17.5t-17.5 41.5q0 25 17.5 42.5t42.5 17.5h465
q24 0 41.5 -17.5t17.5 -42.5q0 -9 -3 -18.5t-8.5 -16.5t-12.5 -12.5t-16.5 -8.5t-18.5 -3zM183 97zM123 97q0 37 34 54q13 5 26 6q25 0 42.5 -17.5t17.5 -42.5q0 -8 -2.5 -16t-6 -14.5t-9 -12t-12.5 -9.5t-14.5 -6t-15.5 -2q-25 0 -42.5 17.5t-17.5 42.5zM838 37h-465
q-25 0 -42.5 17.5t-17.5 42.5q0 24 17.5 42t42.5 18h465q24 0 41.5 -18t17.5 -42q0 -12 -4.5 -23t-12.5 -19t-19 -13t-23 -5z" />
    <glyph glyph-name="uniE60D" unicode="&#xe60d;" 
d="M477 563q-106 0 -186.5 -47.5t-121.5 -126t-41 -176.5q0 -57 16 -100.5t44 -66t63.5 -27t78.5 15t85 61.5q35 35 78.5 53.5t84.5 22t84 1.5t80 -3.5t68.5 3t54 23.5t32.5 55q9 35 5 67t-19 60.5t-39.5 53.5t-56 45.5t-69 36.5t-77.5 26.5t-81.5 16.5t-82.5 6zM255 75
q-17 0 -31 8t-22 22t-8 31t8 31t22 22t30.5 8t30.5 -8t22.5 -22t8.5 -31q0 -10 -3 -19.5t-9 -16.5t-13.5 -13t-16.5 -9t-19 -3zM279 268q-9 0 -16.5 2.5t-14.5 6.5t-12.5 9.5t-9.5 12t-6 14.5t-2 16q0 26 17.5 43.5t43.5 17.5q8 0 16 -2t14.5 -6t12 -9.5t9.5 -12.5t6 -14.5
t2 -16.5q0 -37 -33 -54q-13 -6 -27 -7zM441 390q-25 0 -43 18t-18 43t18 43t43 18t43 -18t18 -43t-18 -43t-43 -18zM658 355q-16 0 -30 8t-22.5 22t-8.5 30q0 26 18 43.5t43 17.5q13 0 24 -4.5t19 -13t13 -19.5t5 -24q0 -25 -18 -42.5t-43 -17.5z" />
    <glyph glyph-name="uniE60E" unicode="&#xe60e;" 
d="M498 430l-41 -121q-1 -3 -0.5 -6t2 -5t4.5 -3.5t6 -1.5h85q4 0 7 2.5t4 6t0 7.5l-44 121q-3 8 -11.5 8t-11.5 -8zM792 620h-560q-37 0 -64 -26.5t-27 -63.5v-379q0 -37 27 -64t64 -27h187l41 -70q8 -15 22.5 -23t29.5 -8t29.5 8t22.5 23l41 70h187q37 0 64 27t27 64v379
q0 18 -7.5 34.5t-19.5 29t-28.5 19.5t-35.5 7zM607 165l-12 35q-8 22 -31 22h-112q-21 0 -27 -19l-13 -38q-5 -14 -17 -23t-27 -9q-24 0 -38 20t-5 43l109 293q9 24 29.5 38.5t46.5 14.5q25 0 45.5 -14.5t29.5 -37.5l111 -294q8 -23 -5.5 -43t-38.5 -20h-1q-15 0 -27.5 9
t-16.5 23z" />
    <glyph glyph-name="uniE60F" unicode="&#xe60f;" 
d="M885 362l-300 312q-10 10 -21 17t-23.5 10.5t-26.5 3.5q-41 0 -70 -31l-300 -312q-37 -38 -22 -71q1 -3 2.5 -5.5t4.5 -6.5t7 -7t9 -6t12.5 -4.5t15.5 -1.5h44v-241q0 -42 27.5 -73.5t67.5 -31.5h128v254v9v9q0 2 0.5 7t1 6.5t2.5 4.5t4.5 4t6.5 1.5t9 0.5h101
q5 0 8.5 -0.5t6 -1.5t4 -2.5t2.5 -4t1.5 -4.5t1 -6t0.5 -7v-8v-8v-254h127q41 0 68 31.5t27 73.5v241h44q38 0 52 31q2 5 2.5 11.5t-0.5 16t-7 21t-17 22.5zM855 309h-38h-25h-30v-290q0 -21 -13 -38.5t-33 -17.5h-78v205q0 92 -73 92h-101q-73 0 -73 -92v-205h-79
q-20 0 -32.5 17.5t-12.5 38.5v290h-30h-26h-38l-1 2l-1 1q9 15 10 16l300 312q14 15 34 15q18 0 33 -15l300 -312q2 -2 10 -15q-1 -1 -1.5 -2.5t-1.5 -1.5z" />
    <glyph glyph-name="uniE610" unicode="&#xe610;" 
d="M801 668h-578q-40 0 -68.5 -27.5t-28.5 -67.5v-544q0 -40 28.5 -67.5t68.5 -27.5h579q40 0 68 27.5t28 67.5v544q0 20 -7.5 37.5t-20.5 30t-31 20t-38 7.5zM850 29q0 -13 -6.5 -24t-17.5 -17.5t-25 -6.5h-578q-20 0 -34.5 14t-14.5 34v544q0 20 14.5 34t34.5 14h579
q13 0 24 -6.5t17.5 -17.5t6.5 -24v-544zM753 502h-410q-6 0 -12 -3t-9 -8.5t-3 -11.5q0 -5 2 -9.5t5 -7.5t7.5 -5t9.5 -2h410q3 0 6 0.5t5 1.5t4 3l4 4q2 2 3 4.5t1.5 5t0.5 5.5q0 9 -7 16t-17 7zM753 384h-410q-6 0 -12 -3t-9 -8.5t-3 -12.5q0 -10 7 -16.5t17 -6.5h410
q10 0 17 6.5t7 16.5q0 7 -3 12.5t-8.5 8.5t-12.5 3zM753 265h-410q-6 0 -12 -3t-9 -8.5t-3 -11.5q0 -10 7 -17t17 -7h410q3 0 6 0.5t5 1.5l4 4q2 1 4 3t3 4.5t1.5 5t0.5 5.5q0 10 -7 16.5t-17 6.5zM753 147h-410q-5 0 -9.5 -2t-7.5 -5t-5 -7.5t-2 -9.5q0 -10 7 -17t17 -7
h410q3 0 6 1t5 2t4 2.5t4 3.5t3 4.5t1.5 5t0.5 5.5q0 7 -3 12.5t-8.5 8.5t-12.5 3zM247 455h48v47h-48v-47zM247 336h48v48h-48v-48zM247 218h48v47h-48v-47zM247 100h48v47h-48v-47z" />
    <glyph glyph-name="uniE611" unicode="&#xe611;" 
d="M62.5 483q-9.5 0 -16 -7t-6.5 -16v-298q0 -3 1 -7t3 -6.5t5 -5t6.5 -3.5t7.5 -1t8.5 2t7.5 5t5 7.5t2 8.5v298q0 9 -7 16t-16.5 7zM913 681q-28 0 -48.5 -20t-21.5 -49l-726 -169v-264l133 -39l1 -142q0 -21 10 -38.5t27.5 -28t37.5 -10.5h320q31 0 53 22.5t22 54.5v35
l122 -25q1 -18 11 -33.5t25.5 -24.5t33.5 -9q30 0 50.5 21.5t20.5 51.5v594q0 7 -1 13.5t-3.5 12t-5.5 11t-7 10.5t-8.5 9t-9.5 7t-11 5.5t-12 3.5t-13 1zM888 608q0 3 1 6t2 5.5t3 5t4 4t4.5 3t5 2t5.5 0.5q5 0 10 -2t8 -5.5t5 -8.5t2 -10v-594q0 -6 -2 -10.5t-5 -8
t-8 -5.5t-10 -2t-9.5 2t-8 5.5t-5.5 8t-2 10.5v594zM678 -2q0 -16 -5.5 -23t-17.5 -7h-325q-13 0 -23.5 11t-10.5 25v127l382 -88v-45zM843 560v-503l-681 154v193z" />
    <glyph glyph-name="uniE612" unicode="&#xe612;" 
d="M880 58v6q0 55 -68 109t-173 77q15 18 26.5 38t18.5 45t7 50v141q0 83 -50.5 138t-126.5 55t-127 -55t-51 -138v-141q0 -89 46 -139q-97 -26 -165 -75.5t-68 -105.5q0 -1 -1 -3v-2q0 -8 -1 -16.5t6 -20.5t21 -19q50 -27 140 -42t199 -15q55 0 105.5 4t94 11t79.5 18
t61 24q31 16 27 56zM384 383v141q0 62 37 103t93 41q27 0 51.5 -11t41.5 -30t27 -46t10 -57v-141q0 -30 -10 -57t-27 -46t-41.5 -30t-51.5 -11q-22 0 -42 7t-36 20t-28 30.5t-18 40t-6 46.5zM831 45q-44 -23 -129.5 -37t-188 -14t-188 14t-130.5 37l-1 1h-1v7q1 7 1 10
q0 36 68 81.5t166 62.5q35 -17 75 -17q43 0 80 19q103 -14 176 -61t73 -84q0 -3 1 -11q0 -6 1 -6l-1 -1z" />
    <glyph glyph-name="uniE613" unicode="&#xe613;" 
d="M839 639h-107v49q0 7 -3 12.5t-9 9t-13 3.5q-10 0 -17 -7.5t-7 -17.5v-49h-148v49q0 7 -3.5 12.5t-9.5 9t-12 3.5q-10 0 -17.5 -7.5t-7.5 -17.5v-49h-148v49q0 7 -3.5 12.5t-9 9t-12.5 3.5q-10 0 -17.5 -7.5t-7.5 -17.5v-49h-107q-10 0 -20.5 -3.5t-18.5 -9.5t-14 -14
t-9.5 -18t-3.5 -21v-585q0 -27 19.5 -46.5t46.5 -19.5h659q14 0 26 5t21 14t14 21t5 26v585q0 27 -19 46.5t-47 19.5zM856 -12q0 -7 -5 -12t-12 -5h-659q-7 0 -11.5 5t-4.5 12v585q0 7 4.5 11.5t11.5 4.5h107v-49q0 -10 7.5 -17.5t17.5 -7.5q5 0 9.5 2t8 5.5t5.5 8t2 9.5v49
h148v-49q0 -10 7.5 -17.5t17.5 -7.5q7 0 12.5 3.5t9 9t3.5 12.5v49h148v-49q0 -10 7 -17.5t17.5 -7.5t17.5 7.5t7 17.5v49h108q6 0 11 -4.5t5 -11.5v-585zM287 342h99v74h-99v-74zM287 218h99v75h-99v-75zM287 95h99v74h-99v-74zM460 95h99v74h-99v-74zM460 218h99v75h-99
v-75zM460 342h99v74h-99v-74zM633 95h99v74h-99v-74zM633 218h99v75h-99v-75zM633 342h99v74h-99v-74z" />
    <glyph glyph-name="uniE614" unicode="&#xe614;" 
d="M513 569q-42 0 -78 -20t-56.5 -55.5t-20.5 -76.5q0 -63 45.5 -108t109.5 -45q32 0 60.5 12.5t49.5 32.5t33.5 48.5t12.5 59.5q0 63 -45.5 107.5t-110.5 44.5zM513 316q-43 0 -73 29.5t-30 71.5t30 71.5t73 29.5t73.5 -29.5t30.5 -71.5q0 -28 -14 -51t-38 -36.5t-52 -13.5
zM513 -133q-20 0 -46 18q-7 5 -14.5 11t-15 14t-15.5 16q-50 54 -100 134q-5 10 -11 19.5t-11.5 19t-10.5 19.5l-10 20q-5 10 -9.5 19.5t-9 19.5t-8.5 19l-8 20q-4 9 -8 19q-37 101 -37 182q0 130 92 222t222 92t222 -92t92 -222q0 -81 -38 -182q-15 -43 -37 -87.5
t-49 -87.5q-49 -80 -99 -134q-12 -13 -23.5 -23t-21.5 -18q-26 -18 -46 -18zM513 679q-109 0 -185 -77q-25 -25 -42 -54.5t-26 -62.5t-9 -68q0 -66 29.5 -151t83.5 -174q46 -75 92 -126q40 -43 57 -47q17 4 57 47q46 52 92 126q54 89 83.5 174t29.5 151q0 13 -1.5 26
t-4 25.5t-6 24.5t-8.5 24t-11 23.5t-13 22t-15.5 20.5t-17.5 19q-18 19 -39.5 33t-45 24t-49 15t-51.5 5z" />
    <glyph glyph-name="uniE615" unicode="&#xe615;" 
d="M893 -23l-239 238q64 79 64 181q0 39 -10 75.5t-29 69.5t-46 60q-41 41 -93.5 63t-110.5 22q-120 0 -205 -85t-85 -205t85 -204.5t205 -84.5q108 0 190 71l238 -237q7 -8 17.5 -8t18 7.5t7.5 18t-7 18.5zM260 228q-22 22 -37.5 49t-24 57.5t-8.5 61.5q0 99 70 169
q34 33 77.5 51t91.5 18q98 0 168 -69q34 -34 52 -77.5t18 -91.5t-18 -91t-52 -77q-11 -11 -23.5 -20.5t-26 -17.5t-28 -14t-29 -10t-30.5 -6t-31 -2q-99 0 -169 70z" />
    <glyph glyph-name="uniE616" unicode="&#xe616;" 
d="M467 268q28 0 56 7q77 -14 139 -65q1 -1 3 -2t4 -1.5t4 -0.5q9 0 14 6t4.5 14t-6.5 12q-24 20 -51 35t-56 25q48 29 76.5 78.5t28.5 107.5t-29 108t-78.5 79t-108.5 29q-25 0 -49.5 -6t-45.5 -16.5t-40 -25.5t-33.5 -33.5t-25 -40t-16.5 -45.5t-6 -49q0 -58 28.5 -107.5
t76.5 -78.5q-88 -30 -150 -102q-39 -46 -60 -103.5t-21 -118.5q0 -7 5.5 -12.5t13 -5.5t13 5.5t5.5 12.5q0 113 72 198q71 83 178 103q27 -7 55 -7zM288 484q0 74 52.5 126.5t126.5 52.5t126.5 -52.5t52.5 -126.5q0 -18 -3 -34.5t-9 -32t-15 -29t-20 -25.5t-24 -22
t-27.5 -17.5t-30.5 -11.5l-1 -1l-8 -2q-4 -1 -8 -1l-8 -2h-8q-4 -1 -8.5 -1.5t-8.5 -0.5q-25 0 -49 7l-1 1q-37 10 -66.5 35t-46 61t-16.5 76zM904 76v0v1h1v1v0q0 1 1 1v1v0v1q1 0 1 1v1v1v1v0q1 2 0 4v1v1v1v0v1l-1 1v0v1l-1 1v1l-1 1v0v1h-1q0 1 -1 1l-158 158
q-2 3 -5.5 4t-7 1t-7 -1t-6.5 -4q-5 -5 -5 -13t5 -13l127 -127h-429q-8 0 -13.5 -5.5t-5.5 -12.5q0 -5 2.5 -9.5t7 -7t9.5 -2.5h429l-127 -126q-2 -3 -3.5 -6.5t-1.5 -6.5t1.5 -6.5t3.5 -6.5q6 -6 13.5 -6t12.5 6l158 158z" />
    <glyph glyph-name="uniE617" unicode="&#xe617;" 
d="M913 -23q-12 61 -50.5 114t-98.5 92q-13 8 -28.5 7t-27.5 -11q-84 -73 -195 -73h-1q-112 0 -196 73q-11 10 -26.5 11t-28.5 -7q-40 -25 -71 -57.5t-51 -70t-28 -78.5q-4 -21 9.5 -38t36.5 -17h710q22 0 36 17t10 38zM875 -38q-3 -4 -8 -4h-710q-5 1 -8 4t-2 8
q22 111 134 182q2 2 5 2t6 -3q95 -82 220 -82h1q125 0 219 82q6 5 12 1q111 -71 133 -182q1 -4 -2 -8zM513 624q-91 0 -155 -64.5t-64 -155t65 -154.5q30 -31 70 -47.5t84 -16.5q90 0 154.5 64.5t64.5 154.5t-64.5 154.5t-154.5 64.5zM513 223q-75 0 -128.5 53.5
t-53.5 128.5t53.5 128.5t128.5 53.5q49 0 91 -24.5t66.5 -66.5t24.5 -91q0 -75 -53.5 -128.5t-128.5 -53.5zM222 329h19v182q11 25 27 47.5t38 42.5q85 78 207 78q59 0 112.5 -20t94.5 -58q20 -18 36 -39t26 -45v-188h19q26 0 48 12.5t34.5 34.5t12.5 48q0 34 -20.5 60
t-52.5 33q-3 8 -7 15q-25 55 -71 96q-96 88 -232 88q-66 0 -126 -22.5t-106 -65.5q-46 -42 -71 -96l-6 -14q-33 -7 -55 -33t-22 -61q0 -52 44 -80q24 -15 51 -15z" />
    <glyph glyph-name="uniE618" unicode="&#xe618;" 
d="M883 624h-742q-27 0 -46.5 -19.5t-19.5 -46.5v-516q0 -27 19.5 -46.5t46.5 -19.5h742q27 0 46.5 19.5t19.5 46.5v516q0 11 -3 21t-9.5 18t-14.5 14.5t-18 9.5t-21 3zM913 42q0 -12 -9 -20.5t-21 -8.5h-742q-8 0 -15 3.5t-11 10.5t-4 15v516q0 12 9 21t21 9h742
q5 0 9.5 -1.5t8 -4.5t6 -6.5t4 -8t1.5 -9.5v-516h1zM784 441h-156q-5 0 -9.5 -2.5t-7 -6.5t-2.5 -9q0 -8 5.5 -13.5t13.5 -5.5h156q2 0 4 0.5t4 1.5t3.5 2.5t2.5 3.5l2 2q1 2 1.5 4.5t0.5 4.5q0 7 -5.5 12.5t-12.5 5.5zM784 319h-156q-5 0 -9.5 -2.5t-7 -7t-2.5 -9.5
q0 -7 5.5 -12.5t13.5 -5.5h156q2 0 4 0.5t4 1.5t3.5 2t2.5 2.5t2 3.5t1.5 4t0.5 4q0 8 -5.5 13.5t-12.5 5.5zM784 196h-156q-5 0 -9.5 -2.5t-7 -6.5t-2.5 -9q0 -4 1.5 -7.5t4 -6t6 -4t7.5 -1.5h156q5 0 9 2.5t6.5 7t2.5 9.5t-2.5 9t-6.5 6.5t-9 2.5zM479 269q-16 12 -36 21
q6 6 10 13.5t7 16t4.5 17t1.5 17.5q0 43 -31 73t-75 29q-13 0 -25.5 -3.5t-23.5 -10.5t-21 -16q-29 -29 -30 -70q-1 -37 22 -65q-7 -3 -14 -7l-12 -6q-7 -4 -13 -9q-51 -38 -51 -94q0 -12 8.5 -20.5t20.5 -8.5h280q12 0 21 8.5t9 20.5q-1 56 -52 94zM297 355q0 13 5 24.5
t14 20.5q19 19 45 19q7 1 13.5 -0.5t12.5 -3.5t11.5 -6t10.5 -8q20 -20 20 -47q0 -16 -7 -29.5t-19 -22.5h1l-14 2q-7 1 -14.5 1.5t-14.5 0.5q-10 0 -20 -1t-19 -3q-8 7 -14 15t-8.5 18t-2.5 20zM229 183q4 33 36 57q40 29 96.5 29t95.5 -29q10 -8 18 -17t12.5 -19t5.5 -21
h-264z" />
    <glyph glyph-name="uniE619" unicode="&#xe619;" 
d="M817 -76h-610q-29 0 -50 21t-21 50v154q0 12 5 23t13.5 18.5t20.5 11.5q15 4 28.5 13.5t23.5 22.5q10 14 15 29.5t5 32.5q0 34 -20 62q-20 26 -52 36q-12 4 -20.5 11.5t-13.5 18.5t-5 23v154q0 29 21 50t50 21h610q19 0 35.5 -9.5t26 -26t9.5 -35.5v-154q0 -12 -5 -23
t-13.5 -18.5t-20.5 -11.5q-32 -9 -52 -36q-20 -28 -20 -62t20 -62q20 -26 52 -36q17 -6 28 -20.5t11 -32.5v-154q0 -29 -21 -50t-50 -21zM207 639q-9 0 -17 -4.5t-12.5 -12.5t-4.5 -17v-154q0 -6 3.5 -11t9.5 -6q43 -14 70 -50q28 -37 28 -84q0 -8 -0.5 -15.5t-2.5 -14.5
l-4 -14q-2 -7 -5 -14t-7 -13.5t-9 -12.5q-27 -36 -70 -49q-13 -4 -13 -18v-154q0 -3 0.5 -6t1.5 -6t2.5 -5.5t3.5 -4.5l4 -4q2 -2 4.5 -3.5t5.5 -2.5t6 -1.5t6 -0.5h610q14 0 24 10t10 24v154q0 14 -13 17q-43 14 -70 50q-28 37 -28 84q0 23 7 44t21 40q4 6 9 11t10.5 10
t11.5 9t12.5 8t13 6.5t13.5 4.5q6 2 9.5 7t3.5 11v154q0 4 -1 8t-2.5 7t-4 6t-5.5 5.5t-6 4t-7 2.5t-8 1h-610zM649 238h-122v72h122q8 0 13.5 5.5t5.5 13t-5.5 13t-13.5 5.5h-92l104 104q5 5 5 13t-5 13t-13 5t-13 -5l-124 -124l-125 124q-5 5 -12.5 5t-13.5 -5
q-3 -3 -4 -6t-1 -6.5t1.5 -7t3.5 -6.5l105 -104h-93q-5 0 -9.5 -2.5t-7 -7t-2.5 -9.5q0 -2 0.5 -4t1.5 -4t2.5 -3.5l2.5 -2.5l4 -2q1 -1 3 -1.5t5 -0.5h119v-72h-119q-8 0 -13.5 -5.5t-5.5 -12.5q0 -2 0.5 -4t1.5 -4t3 -4l2 -2q2 -2 3.5 -3t3.5 -1.5t5 -0.5h119v-100
q0 -5 2.5 -9t6.5 -6.5t9 -2.5q8 0 13 5.5t5 12.5v100h122q5 0 9.5 2.5t7 7t2.5 9.5q0 3 -1 5.5t-3 5t-4 4t-5 2.5t-6 1z" />
    <glyph glyph-name="uniE61A" unicode="&#xe61a;" 
d="M883 672q-25 17 -53 5l-287 -125q-15 -6 -31 -6t-31 6l-287 125q-28 12 -53 -5q-4 -3 -7 -6t-5.5 -6.5t-4.5 -7.5t-3.5 -8t-2 -8.5t-0.5 -9.5v-515q0 -10 4 -20t11.5 -17.5t17.5 -12.5l325 -141q8 -4 17.5 -6t18.5 -2q19 0 36 8l325 141q6 3 11.5 6.5t9 8.5t6.5 10.5
t4.5 12t1.5 12.5v515q0 29 -23 46zM165 95q-10 5 -10 16v516q0 5 2 8.5t6 6.5t9 3q2 0 4 -0.5t3 -1.5l315 -136v-555q-3 1 -3 2zM869 111q0 -5 -2.5 -9.5t-7.5 -6.5l-326 -142l-1 -1h-2v555l315 136q8 4 16 -1t8 -15v-516z" />
    <glyph glyph-name="uniE61B" unicode="&#xe61b;" 
d="M626 331h-238q-6 0 -10 -2.5t-6.5 -7t-2.5 -9.5t2.5 -9t6.5 -6.5t10 -2.5h238q5 0 9.5 2.5t7 6.5t2.5 9q0 8 -5.5 13.5t-13.5 5.5zM783 708h-552q-26 0 -44.5 -18.5t-18.5 -44.5v-678q0 -26 18.5 -44.5t44.5 -18.5h552q13 0 24.5 5t20 13.5t13.5 20t5 24.5v678
q0 26 -18.5 44.5t-44.5 18.5zM808 -33q0 -10 -7 -17.5t-18 -7.5h-552q-11 0 -18 7.5t-7 17.5v678q0 10 7 17.5t18 7.5h552q11 0 18 -7.5t7 -17.5v-678zM626 469h-238q-8 0 -13.5 -5.5t-5.5 -13.5q0 -3 1.5 -6.5t4 -6t6 -4t7.5 -1.5h238q8 0 13.5 5.5t5.5 12.5q0 8 -5.5 13.5
t-13.5 5.5zM626 193h-238q-8 0 -13.5 -5.5t-5.5 -13.5q0 -5 2.5 -9.5t6.5 -7t10 -2.5h238q8 0 13.5 5.5t5.5 13.5t-5.5 13.5t-13.5 5.5z" />
    <glyph glyph-name="uniE61C" unicode="&#xe61c;" 
d="M512 748q-185 0 -316.5 -131.5t-131.5 -316.5t131.5 -316.5t316.5 -131.5t316.5 131.5t131.5 316.5t-131.5 316.5t-316.5 131.5zM512 -20q-20 0 -34 14t-14 34t14 34t34 14q13 0 24 -6.5t17.5 -17.5t6.5 -24q0 -32 -29 -45q-10 -3 -19 -3zM601 307q-19 -19 -28.5 -29
t-19 -26t-9.5 -28v-54q0 -13 -9.5 -22.5t-22.5 -9.5t-22.5 9.5t-9.5 22.5v54q0 25 13 50t25.5 39.5t36.5 38.5q18 17 26.5 26.5t17.5 23.5t9 24q0 13 -3.5 25.5t-9.5 23t-15 19.5t-19.5 15.5t-23 10t-25.5 3.5q-40 0 -68 -27.5t-28 -67.5q0 -13 -9.5 -22.5t-22.5 -9.5
q-7 0 -12.5 2.5t-10 7t-7 10.5t-2.5 12q0 32 12.5 61.5t34 51t51.5 34t62 12.5q66 0 113 -47t47 -114q0 -17 -5.5 -33t-18 -32.5t-21.5 -26.5t-26 -27z" />
    <glyph glyph-name="uniE61D" unicode="&#xe61d;" 
d="M283 300l475 434q12 11 12 27.5t-12 28.5t-28.5 12t-28.5 -12l-494 -451q-8 -3 -14 -9q-12 -13 -11 -31q-1 -17 11 -29q6 -6 13 -9l495 -451q8 -8 18 -10.5t20.5 0t18.5 10.5q11 12 11 28.5t-11 27.5z" />
    <glyph glyph-name="uniE61E" unicode="&#xe61e;" 
d="M960 609q0 -12 -7.5 -20.5t-19.5 -8.5h-841q-4 0 -7.5 1t-6.5 2.5t-5.5 4.5t-4 6t-2.5 7t-1 8v5q0 12 8 20.5t19 8.5h841q6 0 11 -2t8.5 -6t5.5 -9.5t2 -11.5v-5zM960 289q0 -12 -7.5 -20.5t-19.5 -8.5h-841q-11 0 -19 8.5t-8 20.5v6q0 12 8 20.5t19 8.5h841q8 0 14 -4
t9.5 -10.5t3.5 -14.5v-6zM960 -31q0 -12 -7.5 -20.5t-19.5 -8.5h-841q-11 0 -19 8.5t-8 20.5v6q0 7 3.5 14t9.5 11t14 4h841q8 0 14 -4t9.5 -11t3.5 -14v-6z" />
    <glyph glyph-name="uniE61F" unicode="&#xe61f;" 
d="M898 20l-295 296l295 295q15 15 15 37t-15 37t-36.5 15t-37.5 -15l-295 -296l-296 296q-4 4 -8.5 7t-9 4.5t-9.5 2.5t-10 1t-10 -1t-9.5 -2.5t-9 -4.5t-8.5 -7q-10 -10 -13.5 -23.5t0 -27t13.5 -23.5l296 -295l-296 -296q-10 -10 -13.5 -23.5t0 -27t13.5 -23.5
q15 -15 37 -15t37 15l296 296l295 -296q16 -15 37.5 -15t36.5 15t15 37t-15 37z" />
    <glyph glyph-name="uniE620" unicode="&#xe620;" 
d="M511.5 754q-92.5 0 -176.5 -36t-145 -97t-97.5 -145t-36.5 -176.5t36.5 -177t97.5 -145.5t145 -97t176.5 -36t177 36t145.5 97t97 145.5t36 177t-36 176.5t-97 145t-145.5 97t-177 36zM511.5 -108q-110.5 0 -204.5 54.5t-148.5 148.5t-54.5 204q0 83 32.5 158.5t87 130
t130 86.5t158.5 32q110 0 204 -54.5t148.5 -148t54.5 -204t-54.5 -204.5t-148.5 -148.5t-204.5 -54.5zM683 332h-139v139q0 6 -5.5 12t-12.5 9t-14 3q-11 0 -21.5 -7.5t-10.5 -16.5v-139h-140q-4 0 -7.5 -2t-6.5 -5.5t-5.5 -7.5t-3.5 -8.5t-1 -8.5q0 -11 7 -21.5t17 -10.5
h140v-140q0 -10 10.5 -17t21.5 -7t21.5 7t10.5 17v140h139q10 0 17 10.5t7 21.5t-7 21.5t-17 10.5z" />
    <glyph glyph-name="uniE621" unicode="&#xe621;" 
d="M512 17l-512 511l55 55h914l55 -55z" />
    <glyph glyph-name="uniE622" unicode="&#xe622;" 
d="M109 -51q20 0 35 18l27 33q18 22 28 33q6 7 20.5 25t22.5 26l48 58q3 3 7 7.5t5 6.5q31 37 34 40l39 47l2 2q1 1 1 2l83 98q2 3 5.5 7t9 11t11 13.5t10.5 12.5t8.5 10t4.5 4l3 -3l6 -7q4 -5 11 -13.5t10 -12.5t11.5 -14t13.5 -15q3 -4 10 -12.5t8 -9.5l274 -327
q21 -27 32 -33.5t25 -5.5t24 9q27 22 18 58q-2 9 -7 17t-13.5 17.5t-11.5 13.5l-96 114q0 1 -1 2l-2 2q-4 4 -7.5 8.5t-7.5 9.5t-7 9l-52 61q-3 4 -10 12t-13 16t-10 12l-15 17q-6 8 -15.5 19.5t-19.5 22.5t-16 19q-1 2 -4 5t-3 4l-52 61l-7 9l-11 13q-1 1 -2 2.5t-2 2.5
l-14 17q-2 3 -6 7.5t-7 7.5l-6 6q-3 3 -7 5.5t-9 3.5q-18 5 -31 -2.5t-26 -24.5l-48 -57q-4 -6 -14 -17.5t-15 -17.5l-15 -18q-3 -4 -8 -10t-9.5 -11t-8.5 -9l-55 -66q0 -1 -7 -9q-2 -3 -7 -8.5t-8 -8.5q-1 -2 -6 -8t-8 -10q-1 -1 -3.5 -4t-4.5 -5l-29 -35q-1 0 -1 -1
q-4 -5 -7 -8l-2 -2q-1 -1 -1 -2l-3 -3q0 -1 -1 -1.5t-3.5 -3.5t-3.5 -5l-22 -27q-1 -1 -3.5 -4t-4.5 -4l-14 -18q-3 -3 -6 -6.5t-5.5 -6.5t-5.5 -6.5t-5 -6.5l-59 -71q-2 -2 -3.5 -4.5t-2.5 -5.5q-11 -28 2.5 -52.5t40.5 -24.5z" />
    <glyph glyph-name="uniE623" unicode="&#xe623;" 
d="M144 538q-14 14 -35 14t-36 -14q-15 -15 -15 -36t15 -36l403 -404q15 -14 36 -14t36 14l403 404q15 15 15 36t-15 36q-15 14 -35.5 14t-35.5 -14l-368 -368z" />
  </font>
</defs>
</svg>
